# xmcd
# Track frame offsets:
# 150
# 11834
# 24615
# 34526
# 47772
#
# Disc length: 801 seconds
# Revision: 0
# Processed by: cddbd v1.5.1PL0 Copyright (c) Steve Scherf et al.
# Submitted via: VisiTrax 2.9.10.228 - For more info visit www.synapsa.com
#
DISCID=35031f05
DTITLE=Wayne Kemp - One song at a time
DYEAR=2005
DGENRE=
TTITLE0=The fireman
TTITLE1=Somewhere without you
TTITLE2=A little bit weaker
TTITLE3=Don't send me no angels
TTITLE4=Crying for their mamas
EXTD=
EXTT0=
EXTT1=
EXTT2=
EXTT3=
EXTT4=
PLAYORDER=
